<svg width="373" height="60" viewBox="0 0 373 60" fill="none" xmlns="http://www.w3.org/2000/svg">
<path d="M68.642 47V12.0909H92.4716V18.9432H77.0795V26.1023H90.9545V32.9716H77.0795V47H68.642ZM103.679 47.4432C102.009 47.4432 100.526 47.1648 99.2301 46.608C97.946 46.0398 96.929 45.1875 96.179 44.0511C95.4403 42.9034 95.071 41.4659 95.071 39.7386C95.071 38.2841 95.3267 37.0568 95.8381 36.0568C96.3494 35.0568 97.054 34.2443 97.9517 33.6193C98.8494 32.9943 99.8835 32.5227 101.054 32.2045C102.224 31.875 103.474 31.6534 104.804 31.5398C106.293 31.4034 107.491 31.2614 108.401 31.1136C109.31 30.9545 109.969 30.733 110.378 30.4489C110.798 30.1534 111.009 29.7386 111.009 29.2045V29.1193C111.009 28.2443 110.707 27.5682 110.105 27.0909C109.503 26.6136 108.69 26.375 107.668 26.375C106.565 26.375 105.679 26.6136 105.009 27.0909C104.338 27.5682 103.912 28.2273 103.73 29.0682L96.0426 28.7955C96.2699 27.2045 96.8551 25.7841 97.7983 24.5341C98.7528 23.2727 100.06 22.2841 101.719 21.5682C103.389 20.8409 105.395 20.4773 107.736 20.4773C109.406 20.4773 110.946 20.6761 112.355 21.0739C113.764 21.4602 114.991 22.0284 116.037 22.7784C117.082 23.517 117.889 24.4261 118.457 25.5057C119.037 26.5852 119.327 27.8182 119.327 29.2045V47H111.486V43.3523H111.281C110.815 44.2386 110.219 44.9886 109.491 45.6023C108.776 46.2159 107.929 46.6761 106.952 46.983C105.986 47.2898 104.895 47.4432 103.679 47.4432ZM106.253 41.9886C107.151 41.9886 107.957 41.8068 108.673 41.4432C109.401 41.0795 109.98 40.5795 110.412 39.9432C110.844 39.2955 111.06 38.5455 111.06 37.6932V35.2045C110.821 35.3295 110.531 35.4432 110.19 35.5455C109.861 35.6477 109.497 35.7443 109.099 35.8352C108.702 35.9261 108.293 36.0057 107.872 36.0739C107.452 36.142 107.048 36.2045 106.662 36.2614C105.878 36.3864 105.207 36.5795 104.651 36.8409C104.105 37.1023 103.685 37.4432 103.389 37.8636C103.105 38.2727 102.963 38.7614 102.963 39.3295C102.963 40.1932 103.27 40.8523 103.884 41.3068C104.509 41.7614 105.298 41.9886 106.253 41.9886ZM131.94 40.1307L131.974 30.1932H133.134L140.497 20.8182H149.94L138.997 34.25H136.798L131.94 40.1307ZM124.423 47V12.0909H132.759V47H124.423ZM140.685 47L133.832 36.125L139.321 30.2102L150.315 47H140.685ZM164.084 47.4943C161.345 47.4943 158.982 46.9545 156.993 45.875C155.016 44.7841 153.493 43.233 152.425 41.2216C151.368 39.1989 150.839 36.7955 150.839 34.0114C150.839 31.3068 151.374 28.9432 152.442 26.9205C153.51 24.8864 155.016 23.3068 156.959 22.1818C158.902 21.0455 161.192 20.4773 163.828 20.4773C165.692 20.4773 167.396 20.767 168.942 21.3466C170.487 21.9261 171.822 22.7841 172.947 23.9205C174.072 25.0568 174.947 26.4602 175.572 28.1307C176.197 29.7898 176.51 31.6932 176.51 33.8409V35.9205H153.754V31.0795H168.754C168.743 30.1932 168.533 29.4034 168.124 28.7102C167.714 28.017 167.152 27.4773 166.436 27.0909C165.732 26.6932 164.919 26.4943 163.999 26.4943C163.067 26.4943 162.232 26.7045 161.493 27.125C160.754 27.5341 160.169 28.0966 159.737 28.8125C159.305 29.517 159.078 30.3182 159.055 31.2159V36.142C159.055 37.2102 159.266 38.1477 159.686 38.9545C160.107 39.75 160.703 40.3693 161.476 40.8125C162.249 41.2557 163.169 41.4773 164.237 41.4773C164.976 41.4773 165.646 41.375 166.249 41.1705C166.851 40.9659 167.368 40.6648 167.8 40.267C168.232 39.8693 168.555 39.3807 168.771 38.8011L176.425 39.0227C176.107 40.7386 175.408 42.233 174.328 43.5057C173.26 44.767 171.857 45.75 170.118 46.4545C168.379 47.1477 166.368 47.4943 164.084 47.4943ZM192.852 47H183.17V12.0909H193.602C196.875 12.0909 199.676 12.7841 202.006 14.1705C204.335 15.5568 206.119 17.5455 207.358 20.1364C208.608 22.7159 209.227 25.8125 209.216 29.4261C209.205 33.1193 208.557 36.2784 207.273 38.9034C205.989 41.517 204.131 43.5227 201.699 44.9205C199.267 46.3068 196.318 47 192.852 47ZM185.301 45.0227H192.767C195.881 45.0227 198.506 44.4034 200.642 43.1648C202.778 41.9148 204.392 40.125 205.483 37.7955C206.585 35.4659 207.131 32.6761 207.119 29.4261C207.119 26.2216 206.591 23.4773 205.534 21.1932C204.477 18.8977 202.938 17.1364 200.915 15.9091C198.903 14.6818 196.438 14.0682 193.517 14.0682H185.301V45.0227ZM227.007 47.5455C224.643 47.5455 222.587 46.9602 220.837 45.7898C219.087 44.6193 217.734 43.017 216.78 40.983C215.825 38.9489 215.348 36.6307 215.348 34.0284C215.348 31.4148 215.825 29.0852 216.78 27.0398C217.746 24.9943 219.07 23.3807 220.751 22.1989C222.433 21.017 224.354 20.4261 226.513 20.4261C227.979 20.4261 229.365 20.7216 230.672 21.3125C231.99 21.892 233.149 22.733 234.149 23.8352C235.161 24.9375 235.95 26.267 236.518 27.8239C237.098 29.3807 237.388 31.1307 237.388 33.0739V34.3693H216.661V32.4773H235.308C235.308 30.5795 234.922 28.8693 234.149 27.3466C233.376 25.8239 232.325 24.6136 230.996 23.7159C229.666 22.8182 228.172 22.3693 226.513 22.3693C224.774 22.3693 223.223 22.858 221.859 23.8352C220.507 24.8011 219.433 26.108 218.638 27.7557C217.854 29.4034 217.445 31.2443 217.411 33.2784V34.1307C217.411 36.3125 217.791 38.2727 218.553 40.0114C219.325 41.7386 220.428 43.108 221.859 44.1193C223.291 45.1193 225.007 45.6193 227.007 45.6193C228.439 45.6193 229.661 45.3807 230.672 44.9034C231.695 44.4148 232.53 43.8239 233.178 43.1307C233.825 42.4375 234.314 41.767 234.643 41.1193L236.536 41.8864C236.138 42.7614 235.518 43.6364 234.678 44.5114C233.848 45.375 232.791 46.0966 231.507 46.6761C230.234 47.2557 228.734 47.5455 227.007 47.5455ZM253.803 20.8182V22.6761H242.365V20.8182H253.803ZM246.234 14.5455H248.297V40.8125C248.297 41.8807 248.501 42.7557 248.911 43.4375C249.331 44.108 249.876 44.608 250.547 44.9375C251.229 45.2557 251.956 45.4148 252.729 45.4148C253.104 45.4148 253.428 45.3864 253.7 45.3295C253.984 45.2727 254.251 45.1989 254.501 45.108L255.013 47C254.695 47.1136 254.342 47.2102 253.956 47.2898C253.57 47.3807 253.115 47.4261 252.592 47.4261C251.501 47.4261 250.467 47.1818 249.49 46.6932C248.524 46.2045 247.74 45.4943 247.138 44.5625C246.536 43.6307 246.234 42.5057 246.234 41.1875V14.5455ZM271.445 47.5455C269.081 47.5455 267.024 46.9602 265.274 45.7898C263.524 44.6193 262.172 43.017 261.217 40.983C260.263 38.9489 259.786 36.6307 259.786 34.0284C259.786 31.4148 260.263 29.0852 261.217 27.0398C262.183 24.9943 263.507 23.3807 265.189 22.1989C266.871 21.017 268.791 20.4261 270.95 20.4261C272.416 20.4261 273.803 20.7216 275.109 21.3125C276.428 21.892 277.587 22.733 278.587 23.8352C279.598 24.9375 280.388 26.267 280.956 27.8239C281.536 29.3807 281.825 31.1307 281.825 33.0739V34.3693H261.098V32.4773H279.746C279.746 30.5795 279.359 28.8693 278.587 27.3466C277.814 25.8239 276.763 24.6136 275.433 23.7159C274.104 22.8182 272.609 22.3693 270.95 22.3693C269.212 22.3693 267.661 22.858 266.297 23.8352C264.945 24.8011 263.871 26.108 263.075 27.7557C262.291 29.4034 261.882 31.2443 261.848 33.2784V34.1307C261.848 36.3125 262.229 38.2727 262.99 40.0114C263.763 41.7386 264.865 43.108 266.297 44.1193C267.729 45.1193 269.445 45.6193 271.445 45.6193C272.876 45.6193 274.098 45.3807 275.109 44.9034C276.132 44.4148 276.967 43.8239 277.615 43.1307C278.263 42.4375 278.751 41.767 279.081 41.1193L280.973 41.8864C280.575 42.7614 279.956 43.6364 279.115 44.5114C278.286 45.375 277.229 46.0966 275.945 46.6761C274.672 47.2557 273.172 47.5455 271.445 47.5455ZM298.803 47.5455C296.575 47.5455 294.615 46.9602 292.922 45.7898C291.229 44.608 289.905 42.9943 288.95 40.9489C288.007 38.9034 287.536 36.5852 287.536 33.9943C287.536 31.4034 288.013 29.0852 288.967 27.0398C289.922 24.9943 291.246 23.3807 292.939 22.1989C294.632 21.017 296.581 20.4261 298.786 20.4261C300.445 20.4261 301.956 20.767 303.32 21.4489C304.695 22.1307 305.831 23.0795 306.729 24.2955C307.638 25.5114 308.217 26.9205 308.467 28.5227H306.354C306.013 26.75 305.161 25.2841 303.797 24.125C302.445 22.9545 300.78 22.3693 298.803 22.3693C297.03 22.3693 295.45 22.8693 294.064 23.8693C292.678 24.858 291.587 26.2273 290.791 27.9773C289.996 29.7159 289.598 31.7102 289.598 33.9602C289.598 36.1761 289.984 38.1648 290.757 39.9261C291.53 41.6761 292.609 43.0625 293.996 44.0852C295.382 45.108 296.984 45.6193 298.803 45.6193C300.087 45.6193 301.257 45.3636 302.314 44.8523C303.382 44.3409 304.274 43.6136 304.99 42.6705C305.706 41.7273 306.178 40.625 306.405 39.3636H308.518C308.268 40.9773 307.7 42.3977 306.814 43.625C305.928 44.8523 304.797 45.8125 303.422 46.5057C302.047 47.1989 300.507 47.5455 298.803 47.5455ZM324.865 20.8182V22.6761H313.428V20.8182H324.865ZM317.297 14.5455H319.359V40.8125C319.359 41.8807 319.564 42.7557 319.973 43.4375C320.393 44.108 320.939 44.608 321.609 44.9375C322.291 45.2557 323.018 45.4148 323.791 45.4148C324.166 45.4148 324.49 45.3864 324.763 45.3295C325.047 45.2727 325.314 45.1989 325.564 45.108L326.075 47C325.757 47.1136 325.405 47.2102 325.018 47.2898C324.632 47.3807 324.178 47.4261 323.655 47.4261C322.564 47.4261 321.53 47.1818 320.553 46.6932C319.587 46.2045 318.803 45.4943 318.2 44.5625C317.598 43.6307 317.297 42.5057 317.297 41.1875V14.5455ZM342.03 47.5455C339.871 47.5455 337.95 46.9659 336.268 45.8068C334.587 44.6364 333.263 43.0284 332.297 40.983C331.331 38.9375 330.848 36.608 330.848 33.9943C330.848 31.3693 331.331 29.0398 332.297 27.0057C333.263 24.9602 334.587 23.3523 336.268 22.1818C337.95 21.0114 339.871 20.4261 342.03 20.4261C344.189 20.4261 346.109 21.0114 347.791 22.1818C349.473 23.3523 350.797 24.9602 351.763 27.0057C352.729 29.0511 353.212 31.3807 353.212 33.9943C353.212 36.608 352.729 38.9375 351.763 40.983C350.797 43.0284 349.473 44.6364 347.791 45.8068C346.109 46.9659 344.189 47.5455 342.03 47.5455ZM342.03 45.6193C343.859 45.6193 345.456 45.1023 346.82 44.0682C348.195 43.0341 349.257 41.6364 350.007 39.875C350.768 38.1136 351.149 36.1534 351.149 33.9943C351.149 31.8352 350.768 29.8807 350.007 28.1307C349.246 26.3693 348.183 24.9716 346.82 23.9375C345.456 22.892 343.859 22.3693 342.03 22.3693C340.2 22.3693 338.604 22.892 337.24 23.9375C335.876 24.9716 334.814 26.3693 334.053 28.1307C333.291 29.8807 332.911 31.8352 332.911 33.9943C332.911 36.1534 333.286 38.1136 334.036 39.875C334.797 41.6364 335.859 43.0341 337.223 44.0682C338.598 45.1023 340.2 45.6193 342.03 45.6193ZM360.375 47V20.8182H362.403V24.9091H362.591C363.159 23.5682 364.119 22.4943 365.472 21.6875C366.824 20.8693 368.364 20.4602 370.091 20.4602C370.273 20.4602 370.455 20.4602 370.636 20.4602C370.818 20.4602 370.989 20.4659 371.148 20.4773V22.5739C371.011 22.5625 370.847 22.5455 370.653 22.5227C370.472 22.4886 370.244 22.4716 369.972 22.4716C368.517 22.4716 367.222 22.7841 366.085 23.4091C364.96 24.0341 364.074 24.8977 363.426 26C362.778 27.0909 362.455 28.3409 362.455 29.75V47H360.375Z" fill="white"/>
<path d="M26.2249 5.57499L13.7499 10.275C10.8749 11.35 8.5249 14.75 8.5249 17.8V36.375C8.5249 39.325 10.4749 43.2 12.8499 44.975L23.5999 53C27.1249 55.65 32.9249 55.65 36.4499 53L47.1999 44.975C49.5749 43.2 51.5249 39.325 51.5249 36.375V17.8C51.5249 14.725 49.1749 11.325 46.2999 10.25L33.8249 5.57499C31.6999 4.79999 28.2999 4.79999 26.2249 5.57499Z" stroke="white" stroke-width="5" stroke-linecap="round" stroke-linejoin="round"/>
<path d="M30 36C28.4615 36 27.1935 35.0563 27.0202 33.8406L27 33.5556V16.4444C27 15.0944 28.3431 14 30 14C31.5385 14 32.8065 14.9437 32.9798 16.1594L33 16.4444V33.5556C33 34.9056 31.6569 36 30 36Z" fill="white"/>
<rect x="27" y="40" width="6" height="6" rx="3" fill="white"/>
</svg>
